<svg xmlns="http://www.w3.org/2000/svg" xmlns:xlink="http://www.w3.org/1999/xlink" width="500" zoomAndPan="magnify" viewBox="0 0 375 374.999991" height="500" preserveAspectRatio="xMidYMid meet" version="1.0"><defs><clipPath id="74335d33f0"><path d="M 70.003906 61.773438 L 304.753906 61.773438 L 304.753906 313.003906 L 70.003906 313.003906 Z M 70.003906 61.773438 " clip-rule="nonzero"/></clipPath></defs><rect x="-37.5" width="450" fill="#ffffff" y="-37.499999" height="449.999989" fill-opacity="1"/><g clip-path="url(#74335d33f0)"><path fill="#ffbd59" d="M 187.429688 104.691406 C 166.347656 104.941406 146.5625 113.347656 131.71875 128.355469 C 116.863281 143.371094 108.6875 163.277344 108.6875 184.398438 C 108.6875 208.300781 119.277344 230.734375 137.75 245.945312 C 143.578125 250.75 146.921875 257.867188 146.921875 265.480469 L 146.921875 285.382812 C 146.921875 300.65625 159.347656 313.082031 174.621094 313.082031 L 202.179688 313.082031 C 217.449219 313.082031 229.878906 300.65625 229.878906 285.382812 L 229.878906 265.480469 C 229.878906 257.886719 233.269531 250.730469 239.175781 245.84375 C 257.925781 230.335938 268.46875 207.484375 268.101562 183.15625 C 267.4375 139.363281 231.253906 104.15625 187.429688 104.691406 Z M 202.179688 302.085938 L 174.621094 302.085938 C 166.304688 302.085938 159.394531 295.976562 158.125 288.015625 L 218.675781 288.015625 C 217.40625 295.980469 210.492188 302.085938 202.179688 302.085938 Z M 218.886719 277.023438 L 157.914062 277.023438 L 157.914062 270.972656 L 218.886719 270.972656 Z M 232.167969 237.367188 C 225.167969 243.160156 220.644531 251.199219 219.304688 259.980469 L 157.496094 259.980469 C 156.164062 251.183594 151.6875 243.179688 144.742188 237.457031 C 128.820312 224.34375 119.6875 205.003906 119.6875 184.390625 C 119.6875 146.949219 150.140625 116.128906 187.566406 115.679688 C 187.84375 115.675781 188.121094 115.675781 188.398438 115.675781 C 225.796875 115.675781 256.546875 145.851562 257.117188 183.324219 C 257.425781 204.296875 248.335938 223.992188 232.167969 237.367188 Z M 182.902344 87.917969 L 182.902344 67.410156 C 182.902344 64.371094 185.363281 61.914062 188.398438 61.914062 C 191.4375 61.914062 193.898438 64.371094 193.898438 67.410156 L 193.898438 87.917969 C 193.898438 90.957031 191.4375 93.417969 188.398438 93.417969 C 185.363281 93.417969 182.902344 90.957031 182.902344 87.917969 Z M 229.253906 97.878906 L 239.511719 80.117188 C 241.027344 77.488281 244.390625 76.589844 247.019531 78.105469 C 249.648438 79.625 250.550781 82.988281 249.035156 85.617188 L 238.78125 103.378906 C 237.761719 105.140625 235.910156 106.125 234.011719 106.125 C 233.078125 106.125 232.132812 105.886719 231.269531 105.386719 C 228.640625 103.871094 227.742188 100.507812 229.253906 97.878906 Z M 287.679688 128.949219 L 269.917969 139.203125 C 269.054688 139.703125 268.109375 139.945312 267.175781 139.945312 C 265.277344 139.945312 263.429688 138.960938 262.410156 137.195312 C 260.890625 134.566406 261.792969 131.203125 264.421875 129.683594 L 282.183594 119.429688 C 284.816406 117.910156 288.175781 118.8125 289.695312 121.441406 C 291.210938 124.066406 290.308594 127.429688 287.679688 128.949219 Z M 304.984375 180.304688 C 304.984375 183.34375 302.523438 185.800781 299.484375 185.800781 L 278.976562 185.800781 C 275.9375 185.800781 273.476562 183.34375 273.476562 180.304688 C 273.476562 177.265625 275.9375 174.808594 278.976562 174.808594 L 299.484375 174.808594 C 302.519531 174.808594 304.984375 177.265625 304.984375 180.304688 Z M 127.523438 84.707031 C 126.003906 82.078125 126.910156 78.714844 129.539062 77.195312 C 132.167969 75.675781 135.53125 76.582031 137.050781 79.207031 L 147.304688 96.96875 C 148.824219 99.597656 147.917969 102.960938 145.292969 104.480469 C 144.425781 104.980469 143.480469 105.222656 142.546875 105.222656 C 140.648438 105.222656 138.800781 104.238281 137.78125 102.472656 Z M 108.722656 138.371094 C 107.789062 138.371094 106.84375 138.128906 105.980469 137.628906 L 88.21875 127.375 C 85.589844 125.855469 84.691406 122.492188 86.207031 119.863281 C 87.722656 117.234375 91.085938 116.335938 93.714844 117.851562 L 111.476562 128.105469 C 114.105469 129.625 115.007812 132.988281 113.492188 135.617188 C 112.472656 137.386719 110.625 138.371094 108.722656 138.371094 Z M 101.519531 178.488281 C 101.519531 181.527344 99.058594 183.988281 96.019531 183.988281 L 75.511719 183.988281 C 72.472656 183.988281 70.011719 181.527344 70.011719 178.488281 C 70.011719 175.453125 72.472656 172.992188 75.511719 172.992188 L 96.019531 172.992188 C 99.054688 172.992188 101.519531 175.457031 101.519531 178.488281 Z M 101.519531 178.488281 " fill-opacity="1" fill-rule="nonzero"/></g></svg>